<svg width="168" height="54" viewBox="0 0 168 54" fill="none" xmlns="http://www.w3.org/2000/svg">
<g clip-path="url(#clip0_154_3)">
<path fill-rule="evenodd" clip-rule="evenodd" d="M18.3317 19.4033V18.22C17.335 17.6433 16.665 16.5667 16.665 15.3333C16.665 13.4933 18.1583 12 19.9983 12C21.8383 12 23.3317 13.4933 23.3317 15.3333C23.3317 16.5667 22.6617 17.6433 21.665 18.22V19.4033C21.905 19.365 22.1117 19.315 22.265 19.255C24.275 18.49 25.385 15.445 28.845 15.3333C32.5283 15.285 34.5417 19.085 37.4667 19.9483C38.255 20.18 39.1783 20.185 40 20.235C38.9417 27.0817 29.0117 30.0217 21.665 28.11V39.6483C23.07 40.085 24.85 40.6667 25.9017 41.65C29.2483 44.7783 27.285 49.48 23.3367 49.6283V47.9617C25.4467 46.9167 25.8433 44.6933 21.665 43.165V50.3333C21.665 51.255 20.9183 52 19.9983 52C19.0783 52 18.3317 51.255 18.3317 50.3333V42.1733C15.0733 41.3233 9.39167 40.2233 9.43333 35.5017C9.46333 32.675 12.0167 30.3333 14.985 30.3333H15.0017C15.9233 30.3333 16.6683 31.08 16.6683 32C16.6683 32.915 15.9317 33.6567 15.02 33.6667C13.6267 33.6817 12.7 34.7517 12.7717 35.6533C12.935 37.5267 16.4717 38.2467 18.3317 38.7267V28.1117C10.9867 30.0217 1.05833 27.08 0 20.235C0.821667 20.185 1.745 20.18 2.53333 19.9483C5.45833 19.085 7.47167 15.285 11.155 15.3333C14.615 15.445 15.725 18.49 17.735 19.255C17.8883 19.315 18.0933 19.3633 18.3317 19.4033ZM13.2667 42.6083C14.705 43.025 16.025 43.38 17.1833 43.6483C14.365 45.0967 14.6917 46.985 16.665 47.9617V49.6283C13.1017 49.495 11.1567 45.655 13.2667 42.6083ZM23.3883 38.265C24.87 37.8367 27.1083 37.1917 27.23 35.6533C27.3017 34.7483 26.37 33.6817 24.98 33.6667C24.0683 33.6567 23.3317 32.915 23.3317 32C23.3317 31.08 24.0783 30.3333 24.9983 30.3333H25.0167C27.97 30.3333 30.5383 32.665 30.5667 35.5017C30.595 37.6233 29.1483 39.4467 27.2567 40.3917C26.2567 39.55 24.9283 38.8767 23.3883 38.265ZM33.01 23.8533C33.8633 23.4533 34.6117 22.9633 35.19 22.3767C32.8467 21.7333 30.9017 18.68 28.9117 18.665C26.8433 18.7317 25.5217 22.5867 21.6667 22.7667V24.755C22.675 25.1217 24.2117 25.315 25.9183 25.2933C25.7117 24.4867 25.6233 23.6217 25.6083 22.6183C26.2967 23.6367 27.2 24.5 28.1467 25.145C28.9433 25.05 29.7433 24.9083 30.5167 24.7167C29.86 23.7383 29.5167 22.7117 29.3017 21.585C30.3767 22.685 31.6567 23.365 33.01 23.8533ZM18.3317 22.7667C14.4783 22.5867 13.155 18.7317 11.0883 18.665C9.09833 18.68 7.15333 21.7333 4.81 22.3767C5.38833 22.9633 6.13667 23.4533 6.99 23.8533C8.34333 23.365 9.62333 22.685 10.6983 21.585C10.4833 22.7117 10.14 23.7383 9.48333 24.7167C10.2567 24.9083 11.0567 25.05 11.8533 25.145C12.8 24.5 13.7033 23.6367 14.3917 22.6183C14.3767 23.6217 14.2883 24.4867 14.0817 25.2933C15.7867 25.315 17.3233 25.1217 18.3317 24.7567V22.7667Z" fill="#26BDBE"/>
</g>
<path d="M50.414 52V44.65H55.622V45.518H51.156L51.408 45.266V52H50.414ZM59.7407 52.07C59.0314 52.07 58.3921 51.9113 57.8227 51.594C57.2627 51.2673 56.8194 50.824 56.4927 50.264C56.1661 49.6947 56.0027 49.046 56.0027 48.318C56.0027 47.5807 56.1661 46.932 56.4927 46.372C56.8194 45.812 57.2627 45.3733 57.8227 45.056C58.3827 44.7387 59.0221 44.58 59.7407 44.58C60.4687 44.58 61.1127 44.7387 61.6727 45.056C62.2421 45.3733 62.6854 45.812 63.0027 46.372C63.3294 46.932 63.4927 47.5807 63.4927 48.318C63.4927 49.046 63.3294 49.6947 63.0027 50.264C62.6854 50.824 62.2421 51.2673 61.6727 51.594C61.1034 51.9113 60.4594 52.07 59.7407 52.07ZM59.7407 51.188C60.2727 51.188 60.7441 51.0713 61.1547 50.838C61.5654 50.5953 61.8874 50.2593 62.1207 49.83C62.3634 49.3913 62.4847 48.8873 62.4847 48.318C62.4847 47.7393 62.3634 47.2353 62.1207 46.806C61.8874 46.3767 61.5654 46.0453 61.1547 45.812C60.7441 45.5693 60.2774 45.448 59.7547 45.448C59.2321 45.448 58.7654 45.5693 58.3547 45.812C57.9441 46.0453 57.6174 46.3767 57.3747 46.806C57.1321 47.2353 57.0107 47.7393 57.0107 48.318C57.0107 48.8873 57.1321 49.3913 57.3747 49.83C57.6174 50.2593 57.9441 50.5953 58.3547 50.838C58.7654 51.0713 59.2274 51.188 59.7407 51.188ZM68.6971 52.07C67.9691 52.07 67.3158 51.9113 66.7371 51.594C66.1678 51.2673 65.7198 50.824 65.3931 50.264C65.0665 49.6947 64.9031 49.046 64.9031 48.318C64.9031 47.5807 65.0665 46.932 65.3931 46.372C65.7198 45.812 66.1678 45.3733 66.7371 45.056C67.3158 44.7387 67.9691 44.58 68.6971 44.58C69.3225 44.58 69.8871 44.7013 70.3911 44.944C70.8951 45.1867 71.2918 45.5507 71.5811 46.036L70.8391 46.54C70.5871 46.1667 70.2745 45.8913 69.9011 45.714C69.5278 45.5367 69.1218 45.448 68.6831 45.448C68.1605 45.448 67.6891 45.5693 67.2691 45.812C66.8491 46.0453 66.5178 46.3767 66.2751 46.806C66.0325 47.2353 65.9111 47.7393 65.9111 48.318C65.9111 48.8967 66.0325 49.4007 66.2751 49.83C66.5178 50.2593 66.8491 50.5953 67.2691 50.838C67.6891 51.0713 68.1605 51.188 68.6831 51.188C69.1218 51.188 69.5278 51.0993 69.9011 50.922C70.2745 50.7447 70.5871 50.474 70.8391 50.11L71.5811 50.614C71.2918 51.09 70.8951 51.454 70.3911 51.706C69.8871 51.9487 69.3225 52.07 68.6971 52.07ZM73.5058 52V44.65H80.1138V52H79.1198V45.252L79.3718 45.518H74.2478L74.4998 45.252V52H73.5058ZM82.9394 52V44.65H83.9334V50.488L88.8474 44.65H89.7294V52H88.7354V46.148L83.8354 52H82.9394ZM93.9781 52V45.252L94.2301 45.518H91.1921V44.65H97.7581V45.518H94.7201L94.9721 45.252V52H93.9781ZM103.759 52V50.376L103.717 50.11V47.394C103.717 46.7687 103.54 46.288 103.185 45.952C102.84 45.616 102.322 45.448 101.631 45.448C101.155 45.448 100.703 45.5273 100.273 45.686C99.8439 45.8447 99.4799 46.0547 99.1813 46.316L98.7333 45.574C99.1066 45.2567 99.5546 45.014 100.077 44.846C100.6 44.6687 101.151 44.58 101.729 44.58C102.681 44.58 103.414 44.818 103.927 45.294C104.45 45.7607 104.711 46.4747 104.711 47.436V52H103.759ZM101.225 52.07C100.675 52.07 100.194 51.9813 99.7833 51.804C99.3819 51.6173 99.0739 51.3653 98.8593 51.048C98.6446 50.7213 98.5373 50.348 98.5373 49.928C98.5373 49.5453 98.6259 49.2 98.8033 48.892C98.9899 48.5747 99.2886 48.3227 99.6993 48.136C100.119 47.94 100.679 47.842 101.379 47.842H103.913V48.584H101.407C100.698 48.584 100.203 48.71 99.9233 48.962C99.6526 49.214 99.5173 49.5267 99.5173 49.9C99.5173 50.32 99.6806 50.656 100.007 50.908C100.334 51.16 100.791 51.286 101.379 51.286C101.939 51.286 102.42 51.16 102.821 50.908C103.232 50.6467 103.531 50.2733 103.717 49.788L103.941 50.474C103.755 50.9593 103.428 51.3467 102.961 51.636C102.504 51.9253 101.925 52.07 101.225 52.07ZM106.013 51.986L106.083 51.132C106.149 51.1413 106.209 51.1553 106.265 51.174C106.331 51.1833 106.387 51.188 106.433 51.188C106.732 51.188 106.97 51.076 107.147 50.852C107.334 50.628 107.474 50.3293 107.567 49.956C107.661 49.5827 107.726 49.1627 107.763 48.696C107.801 48.22 107.833 47.744 107.861 47.268L107.987 44.65H113.377V52H112.383V45.224L112.635 45.518H108.631L108.869 45.21L108.757 47.338C108.729 47.9727 108.678 48.5793 108.603 49.158C108.538 49.7367 108.431 50.2453 108.281 50.684C108.141 51.1227 107.945 51.468 107.693 51.72C107.441 51.9627 107.119 52.084 106.727 52.084C106.615 52.084 106.499 52.0747 106.377 52.056C106.265 52.0373 106.144 52.014 106.013 51.986ZM116.203 52V44.65H117.197V50.488L122.111 44.65H122.993V52H121.999V46.148L117.099 52H116.203ZM127.665 52.084C127.133 52.084 126.606 52.0093 126.083 51.86C125.561 51.7107 125.099 51.482 124.697 51.174L125.019 50.432C125.374 50.6933 125.785 50.894 126.251 51.034C126.718 51.1647 127.18 51.23 127.637 51.23C128.095 51.2207 128.491 51.1553 128.827 51.034C129.163 50.9127 129.425 50.7447 129.611 50.53C129.798 50.3153 129.891 50.0727 129.891 49.802C129.891 49.41 129.714 49.1067 129.359 48.892C129.005 48.668 128.519 48.556 127.903 48.556H126.643V47.828H127.833C128.197 47.828 128.519 47.7813 128.799 47.688C129.079 47.5947 129.294 47.4593 129.443 47.282C129.602 47.1047 129.681 46.8947 129.681 46.652C129.681 46.3907 129.588 46.1667 129.401 45.98C129.224 45.7933 128.977 45.6533 128.659 45.56C128.342 45.4667 127.983 45.42 127.581 45.42C127.217 45.4293 126.839 45.4853 126.447 45.588C126.055 45.6813 125.668 45.826 125.285 46.022L125.005 45.252C125.435 45.028 125.859 44.86 126.279 44.748C126.709 44.6267 127.138 44.566 127.567 44.566C128.155 44.5473 128.683 44.6173 129.149 44.776C129.625 44.9347 130.003 45.1633 130.283 45.462C130.563 45.7513 130.703 46.1013 130.703 46.512C130.703 46.876 130.591 47.1933 130.367 47.464C130.143 47.7347 129.845 47.9447 129.471 48.094C129.098 48.2433 128.673 48.318 128.197 48.318L128.239 48.052C129.079 48.052 129.733 48.2153 130.199 48.542C130.675 48.8687 130.913 49.312 130.913 49.872C130.913 50.3107 130.769 50.698 130.479 51.034C130.19 51.3607 129.798 51.6173 129.303 51.804C128.818 51.9907 128.272 52.084 127.665 52.084ZM137.734 52V50.376L137.692 50.11V47.394C137.692 46.7687 137.515 46.288 137.16 45.952C136.815 45.616 136.297 45.448 135.606 45.448C135.13 45.448 134.677 45.5273 134.248 45.686C133.819 45.8447 133.455 46.0547 133.156 46.316L132.708 45.574C133.081 45.2567 133.529 45.014 134.052 44.846C134.575 44.6687 135.125 44.58 135.704 44.58C136.656 44.58 137.389 44.818 137.902 45.294C138.425 45.7607 138.686 46.4747 138.686 47.436V52H137.734ZM135.2 52.07C134.649 52.07 134.169 51.9813 133.758 51.804C133.357 51.6173 133.049 51.3653 132.834 51.048C132.619 50.7213 132.512 50.348 132.512 49.928C132.512 49.5453 132.601 49.2 132.778 48.892C132.965 48.5747 133.263 48.3227 133.674 48.136C134.094 47.94 134.654 47.842 135.354 47.842H137.888V48.584H135.382C134.673 48.584 134.178 48.71 133.898 48.962C133.627 49.214 133.492 49.5267 133.492 49.9C133.492 50.32 133.655 50.656 133.982 50.908C134.309 51.16 134.766 51.286 135.354 51.286C135.914 51.286 136.395 51.16 136.796 50.908C137.207 50.6467 137.505 50.2733 137.692 49.788L137.916 50.474C137.729 50.9593 137.403 51.3467 136.936 51.636C136.479 51.9253 135.9 52.07 135.2 52.07ZM141.332 52V44.65H142.326V51.132H146.82V44.65H147.814V52H141.332ZM148.066 53.778V51.916L148.318 52H146.82V51.132H149.004V53.778H148.066ZM150.902 52V44.65H151.896V50.488L156.81 44.65H157.692V52H156.698V46.148L151.798 52H150.902ZM165.287 52V49.354L165.469 49.564H162.977C162.034 49.564 161.297 49.3587 160.765 48.948C160.233 48.5373 159.967 47.94 159.967 47.156C159.967 46.316 160.252 45.6907 160.821 45.28C161.39 44.86 162.151 44.65 163.103 44.65H166.197V52H165.287ZM159.911 52L161.927 49.172H162.963L160.989 52H159.911ZM165.287 49.06V45.224L165.469 45.518H163.131C162.45 45.518 161.918 45.6487 161.535 45.91C161.162 46.1713 160.975 46.596 160.975 47.184C160.975 48.276 161.67 48.822 163.061 48.822H165.469L165.287 49.06Z" fill="#26BDBE"/>
<path d="M50.36 34V12.64H55.6L64.2 27.8H62.12L71.16 12.64H75.84L75.88 34H71.36V18L72.16 18.52L64.16 31.76H62L53.96 18.16L54.92 17.92V34H50.36ZM92.3066 34.28C90.0666 34.28 88.0666 33.8133 86.3066 32.88C84.5732 31.92 83.2132 30.6133 82.2266 28.96C81.2399 27.3067 80.7466 25.4267 80.7466 23.32C80.7466 21.1867 81.2399 19.3067 82.2266 17.68C83.2132 16.0267 84.5732 14.7333 86.3066 13.8C88.0666 12.8667 90.0666 12.4 92.3066 12.4C94.3866 12.4 96.2132 12.8267 97.7866 13.68C99.3866 14.5067 100.6 15.7333 101.427 17.36L97.5866 19.6C96.9466 18.5867 96.1599 17.84 95.2266 17.36C94.3199 16.88 93.3332 16.64 92.2666 16.64C91.0399 16.64 89.9332 16.9067 88.9466 17.44C87.9599 17.9733 87.1866 18.7467 86.6266 19.76C86.0666 20.7467 85.7866 21.9333 85.7866 23.32C85.7866 24.7067 86.0666 25.9067 86.6266 26.92C87.1866 27.9067 87.9599 28.6667 88.9466 29.2C89.9332 29.7333 91.0399 30 92.2666 30C93.3332 30 94.3199 29.76 95.2266 29.28C96.1599 28.8 96.9466 28.0533 97.5866 27.04L101.427 29.28C100.6 30.88 99.3866 32.12 97.7866 33C96.2132 33.8533 94.3866 34.28 92.3066 34.28ZM121.149 34L113.429 23.76L117.509 21.24L127.029 34H121.149ZM105.829 34V12.64H110.829V34H105.829ZM109.349 25.44V21.28H116.589V25.44H109.349ZM117.989 23.92L113.309 23.36L121.149 12.64H126.509L117.989 23.92Z" fill="#26BDBE"/>
<defs>
<clipPath id="clip0_154_3">
<rect width="40" height="40" fill="white" transform="translate(0 12)"/>
</clipPath>
</defs>
</svg>
